<svg xmlns="http://www.w3.org/2000/svg" width="48" height="48" viewBox="0 0 48 48"><g stroke="#281f1b" stroke-width="3.2" stroke-linecap="round" stroke-linejoin="round"><path d="M10 25 Q5 8 22 6 Q41 4 40 23 L35 30 34 41 14 40 14 31Z" fill="#c9b68d"/><circle cx="17" cy="21" r="4" fill="#281f1b"/><circle cx="31" cy="20" r="4" fill="#281f1b"/><path d="M23 29 25 26 27 30Z" fill="#281f1b"/><path d="M20 34 20 40 M28 34 28 40" fill="none"/><g transform="translate(6,3) scale(.75)"><path d="M12 10 36 38 M9 12 13 8 M33 40 39 35 M37 9 10 38 M34 7 40 12 M7 35 13 41" fill="none"/></g></g></svg>